<svg width="387" height="547" viewBox="0 0 387 547" fill="none" xmlns="http://www.w3.org/2000/svg">
<g clip-path="url(#clip0_6_35)">
<mask id="mask0_6_35" style="mask-type:luminance" maskUnits="userSpaceOnUse" x="0" y="0" width="387" height="547">
<path d="M386.916 0H0V546.133H386.916V0Z" fill="white"/>
</mask>
<g mask="url(#mask0_6_35)">
<path d="M386.916 107.328L351.667 502.207L193.221 546.133L35.2117 502.269L0 107.328H386.916Z" fill="#64FFDA"/>
<path d="M321.49 477.062L351.613 139.62H193.458V512.558L321.49 477.062Z" fill="#C6FFF1"/>
<path d="M80.7222 286.098L85.0635 334.535H193.458V286.098H80.7222Z" fill="black"/>
<path d="M193.458 188.059H193.291H71.999L76.4022 236.497H193.458V188.059Z" fill="black"/>
<path d="M193.458 462.292V411.896L193.246 411.953L139.3 397.387L135.852 358.755H109.638H87.2278L94.0139 434.81L193.235 462.354L193.458 462.292Z" fill="black"/>
<path d="M91.0581 0H149.725V24.5333H115.591V49.0667H149.725V73.6H91.0581V0Z" fill="#64FFDA"/>
<path d="M161.458 0H220.125V21.3333H185.991V25.6H220.125V74.6667H161.458V52.2667H195.591V48H161.458V0Z" fill="#64FFDA"/>
<path d="M231.858 0H290.525V21.3333H256.391V25.6H290.525V74.6667H231.858V52.2667H265.991V48H231.858V0Z" fill="#64FFDA"/>
<path d="M252.937 334.535L247.314 397.356L193.291 411.937V462.331L292.591 434.81L293.32 426.626L304.702 299.105L305.884 286.098L314.628 188.059H193.291V236.497H261.545L257.137 286.098H193.291V334.535H252.937Z" fill="#2E2E2E"/>
</g>
</g>
<defs>
<clipPath id="clip0_6_35">
<rect width="387" height="547" fill="white"/>
</clipPath>
</defs>
</svg>
