<svg width="1024" height="1221" viewBox="0 0 1024 1221" fill="none" xmlns="http://www.w3.org/2000/svg">
<g clip-path="url(#clip0_8_10)">
<g clip-path="url(#clip1_8_10)">
<path fill-rule="evenodd" clip-rule="evenodd" d="M512 0C229.12 0 0 229.12 0 512C0 738.56 146.56 929.92 350.08 997.76C375.68 1002.24 385.28 986.88 385.28 973.44C385.28 961.28 384.64 920.96 384.64 878.08C256 901.76 222.72 846.72 212.48 817.92C206.72 803.2 181.76 757.76 160 745.6C142.08 736 116.48 712.32 159.36 711.68C199.68 711.04 228.48 748.8 238.08 764.16C284.16 841.6 357.76 819.84 387.2 806.4C391.68 773.12 405.12 750.72 419.84 737.92C305.92 725.12 186.88 680.96 186.88 485.12C186.88 429.44 206.72 383.36 239.36 347.52C234.24 334.72 216.32 282.24 244.48 211.84C244.48 211.84 287.36 198.4 385.28 264.32C426.24 252.8 469.76 247.04 513.28 247.04C556.8 247.04 600.32 252.8 641.28 264.32C739.2 197.76 782.08 211.84 782.08 211.84C810.24 282.24 792.32 334.72 787.2 347.52C819.84 383.36 839.68 428.8 839.68 485.12C839.68 681.6 720 725.12 606.08 737.92C624.64 753.92 640.64 784.64 640.64 832.64C640.64 901.12 640 956.16 640 973.44C640 986.88 649.6 1002.88 675.2 997.76C877.44 929.92 1024 737.92 1024 512C1024 229.12 794.88 0 512 0Z" fill="#64FFDA"/>
</g>
<path d="M50.6477 1221V1127.91H106.466V1137.91H61.9205V1169.36H102.284V1179.36H61.9205V1221H50.6477ZM125.773 1221V1127.91H137.045V1211H180.318V1221H125.773ZM197.773 1221V1127.91H253.955V1137.91H209.045V1169.36H251.045V1179.36H209.045V1211H254.682V1221H197.773ZM279.727 1127.91L303.727 1166.64H304.455L328.455 1127.91H341.727L312.455 1174.45L341.727 1221H328.455L304.455 1183H303.727L279.727 1221H266.455L296.455 1174.45L266.455 1127.91H279.727ZM356.398 1221V1127.91H388.943C395.428 1127.91 400.777 1129.03 404.989 1131.27C409.201 1133.48 412.337 1136.47 414.398 1140.23C416.458 1143.95 417.489 1148.09 417.489 1152.64C417.489 1156.64 416.777 1159.94 415.352 1162.55C413.958 1165.15 412.11 1167.21 409.807 1168.73C407.534 1170.24 405.064 1171.36 402.398 1172.09V1173C405.246 1173.18 408.11 1174.18 410.989 1176C413.867 1177.82 416.277 1180.42 418.216 1183.82C420.155 1187.21 421.125 1191.36 421.125 1196.27C421.125 1200.94 420.064 1205.14 417.943 1208.86C415.822 1212.59 412.473 1215.55 407.898 1217.73C403.322 1219.91 397.367 1221 390.034 1221H356.398ZM367.67 1211H390.034C397.398 1211 402.625 1209.58 405.716 1206.73C408.837 1203.85 410.398 1200.36 410.398 1196.27C410.398 1193.12 409.595 1190.21 407.989 1187.55C406.383 1184.85 404.095 1182.7 401.125 1181.09C398.155 1179.45 394.64 1178.64 390.58 1178.64H367.67V1211ZM367.67 1168.82H388.58C391.973 1168.82 395.034 1168.15 397.761 1166.82C400.519 1165.48 402.701 1163.61 404.307 1161.18C405.943 1158.76 406.761 1155.91 406.761 1152.64C406.761 1148.55 405.337 1145.08 402.489 1142.23C399.64 1139.35 395.125 1137.91 388.943 1137.91H367.67V1168.82ZM518.193 1174.45C518.193 1184.27 516.42 1192.76 512.875 1199.91C509.33 1207.06 504.466 1212.58 498.284 1216.45C492.102 1220.33 485.042 1222.27 477.102 1222.27C469.163 1222.27 462.102 1220.33 455.92 1216.45C449.739 1212.58 444.875 1207.06 441.33 1199.91C437.784 1192.76 436.011 1184.27 436.011 1174.45C436.011 1164.64 437.784 1156.15 441.33 1149C444.875 1141.85 449.739 1136.33 455.92 1132.45C462.102 1128.58 469.163 1126.64 477.102 1126.64C485.042 1126.64 492.102 1128.58 498.284 1132.45C504.466 1136.33 509.33 1141.85 512.875 1149C516.42 1156.15 518.193 1164.64 518.193 1174.45ZM507.284 1174.45C507.284 1166.39 505.936 1159.59 503.239 1154.05C500.572 1148.5 496.951 1144.3 492.375 1141.45C487.83 1138.61 482.739 1137.18 477.102 1137.18C471.466 1137.18 466.36 1138.61 461.784 1141.45C457.239 1144.3 453.617 1148.5 450.92 1154.05C448.254 1159.59 446.92 1166.39 446.92 1174.45C446.92 1182.52 448.254 1189.32 450.92 1194.86C453.617 1200.41 457.239 1204.61 461.784 1207.45C466.36 1210.3 471.466 1211.73 477.102 1211.73C482.739 1211.73 487.83 1210.3 492.375 1207.45C496.951 1204.61 500.572 1200.41 503.239 1194.86C505.936 1189.32 507.284 1182.52 507.284 1174.45ZM541.102 1127.91L565.102 1166.64H565.83L589.83 1127.91H603.102L573.83 1174.45L603.102 1221H589.83L565.83 1183H565.102L541.102 1221H527.83L557.83 1174.45L527.83 1127.91H541.102ZM728.682 1157H717.409C716.742 1153.76 715.576 1150.91 713.909 1148.45C712.273 1146 710.273 1143.94 707.909 1142.27C705.576 1140.58 702.985 1139.3 700.136 1138.45C697.288 1137.61 694.318 1137.18 691.227 1137.18C685.591 1137.18 680.485 1138.61 675.909 1141.45C671.364 1144.3 667.742 1148.5 665.045 1154.05C662.379 1159.59 661.045 1166.39 661.045 1174.45C661.045 1182.52 662.379 1189.32 665.045 1194.86C667.742 1200.41 671.364 1204.61 675.909 1207.45C680.485 1210.3 685.591 1211.73 691.227 1211.73C694.318 1211.73 697.288 1211.3 700.136 1210.45C702.985 1209.61 705.576 1208.35 707.909 1206.68C710.273 1204.98 712.273 1202.91 713.909 1200.45C715.576 1197.97 716.742 1195.12 717.409 1191.91H728.682C727.833 1196.67 726.288 1200.92 724.045 1204.68C721.803 1208.44 719.015 1211.64 715.682 1214.27C712.348 1216.88 708.606 1218.86 704.455 1220.23C700.333 1221.59 695.924 1222.27 691.227 1222.27C683.288 1222.27 676.227 1220.33 670.045 1216.45C663.864 1212.58 659 1207.06 655.455 1199.91C651.909 1192.76 650.136 1184.27 650.136 1174.45C650.136 1164.64 651.909 1156.15 655.455 1149C659 1141.85 663.864 1136.33 670.045 1132.45C676.227 1128.58 683.288 1126.64 691.227 1126.64C695.924 1126.64 700.333 1127.32 704.455 1128.68C708.606 1130.05 712.348 1132.05 715.682 1134.68C719.015 1137.29 721.803 1140.47 724.045 1144.23C726.288 1147.95 727.833 1152.21 728.682 1157ZM750.716 1221H738.898L773.08 1127.91H784.716L818.898 1221H807.08L779.261 1142.64H778.534L750.716 1221ZM755.08 1184.64H802.716V1194.64H755.08V1184.64ZM833.398 1221V1127.91H864.852C872.125 1127.91 878.095 1129.15 882.761 1131.64C887.428 1134.09 890.883 1137.47 893.125 1141.77C895.367 1146.08 896.489 1150.97 896.489 1156.45C896.489 1161.94 895.367 1166.8 893.125 1171.05C890.883 1175.29 887.443 1178.62 882.807 1181.05C878.17 1183.44 872.246 1184.64 865.034 1184.64H839.58V1174.45H864.67C869.64 1174.45 873.64 1173.73 876.67 1172.27C879.731 1170.82 881.943 1168.76 883.307 1166.09C884.701 1163.39 885.398 1160.18 885.398 1156.45C885.398 1152.73 884.701 1149.47 883.307 1146.68C881.913 1143.89 879.686 1141.74 876.625 1140.23C873.564 1138.68 869.519 1137.91 864.489 1137.91H844.67V1221H833.398ZM877.216 1179.18L900.125 1221H887.034L864.489 1179.18H877.216ZM966.182 1151.18C965.636 1146.58 963.424 1143 959.545 1140.45C955.667 1137.91 950.909 1136.64 945.273 1136.64C941.152 1136.64 937.545 1137.3 934.455 1138.64C931.394 1139.97 929 1141.8 927.273 1144.14C925.576 1146.47 924.727 1149.12 924.727 1152.09C924.727 1154.58 925.318 1156.71 926.5 1158.5C927.712 1160.26 929.258 1161.73 931.136 1162.91C933.015 1164.06 934.985 1165.02 937.045 1165.77C939.106 1166.5 941 1167.09 942.727 1167.55L952.182 1170.09C954.606 1170.73 957.303 1171.61 960.273 1172.73C963.273 1173.85 966.136 1175.38 968.864 1177.32C971.621 1179.23 973.894 1181.68 975.682 1184.68C977.47 1187.68 978.364 1191.36 978.364 1195.73C978.364 1200.76 977.045 1205.3 974.409 1209.36C971.803 1213.42 967.985 1216.65 962.955 1219.05C957.955 1221.44 951.879 1222.64 944.727 1222.64C938.061 1222.64 932.288 1221.56 927.409 1219.41C922.561 1217.26 918.742 1214.26 915.955 1210.41C913.197 1206.56 911.636 1202.09 911.273 1197H922.909C923.212 1200.52 924.394 1203.42 926.455 1205.73C928.545 1208 931.182 1209.7 934.364 1210.82C937.576 1211.91 941.03 1212.45 944.727 1212.45C949.03 1212.45 952.894 1211.76 956.318 1210.36C959.742 1208.94 962.455 1206.97 964.455 1204.45C966.455 1201.91 967.455 1198.94 967.455 1195.55C967.455 1192.45 966.591 1189.94 964.864 1188C963.136 1186.06 960.864 1184.48 958.045 1183.27C955.227 1182.06 952.182 1181 948.909 1180.09L937.455 1176.82C930.182 1174.73 924.424 1171.74 920.182 1167.86C915.939 1163.98 913.818 1158.91 913.818 1152.64C913.818 1147.42 915.227 1142.88 918.045 1139C920.894 1135.09 924.712 1132.06 929.5 1129.91C934.318 1127.73 939.697 1126.64 945.636 1126.64C951.636 1126.64 956.97 1127.71 961.636 1129.86C966.303 1131.98 970 1134.89 972.727 1138.59C975.485 1142.29 976.939 1146.48 977.091 1151.18H966.182Z" fill="#64FFDA"/>
</g>
<defs>
<clipPath id="clip0_8_10">
<rect width="1024" height="1221" fill="white"/>
</clipPath>
<clipPath id="clip1_8_10">
<rect width="1024" height="999" fill="white"/>
</clipPath>
</defs>
</svg>
