<svg width="800" height="800" viewBox="0 0 800 800" fill="none" xmlns="http://www.w3.org/2000/svg">
<g clip-path="url(#clip0_10_7)">
<g filter="url(#filter0_d_10_7)">
<path d="M625 0H175C50 0 0 75 0 200V400V625C0 750 50 800 175 800H625C750 800 800 750 800 625V200C800 75 750 0 625 0ZM300 625C300 640 290 650 275 650H175C160 650 150 640 150 625V325C150 310 160 300 175 300H275C290 300 300 310 300 325V625ZM225 275C182.5 275 150 242.5 150 200C150 157.5 182.5 125 225 125C267.5 125 300 157.5 300 200C300 242.5 267.5 275 225 275ZM650 625C650 640 640 650 625 650H550C535 650 525 640 525 625V537.5V512.5V462.5C525 442.5 507.5 425 487.5 425C467.5 425 450 442.5 450 462.5V512.5V537.5V625C450 640 440 650 425 650H350C335 650 325 640 325 625V325C325 310 335 300 350 300H450V300C462.027 300 474.656 304.788 486.465 302.51C495.143 300.837 503.822 300 512.5 300C587.5 300 650 362.5 650 437.5V625Z" fill="#64FFDA"/>
<path d="M175 0.5H625C687.396 0.5 730.984 19.2143 758.988 53.4416C787.008 87.6887 799.5 137.553 799.5 200V625C799.5 687.451 787.007 731.036 759.021 759.021C731.036 787.007 687.451 799.5 625 799.5H175C112.549 799.5 68.9639 787.007 40.9786 759.021C12.9932 731.036 0.5 687.451 0.5 625V400V200C0.5 137.553 12.9916 87.6887 41.012 53.4416C69.0162 19.2143 112.604 0.5 175 0.5ZM275 650.5C282.614 650.5 288.997 647.96 293.479 643.479C297.96 638.997 300.5 632.614 300.5 625V325C300.5 317.386 297.96 311.003 293.479 306.521C288.997 302.04 282.614 299.5 275 299.5H175C167.386 299.5 161.003 302.04 156.521 306.521C152.04 311.003 149.5 317.386 149.5 325V625C149.5 632.614 152.04 638.997 156.521 643.479C161.003 647.96 167.386 650.5 175 650.5H275ZM149.5 200C149.5 242.776 182.224 275.5 225 275.5C267.776 275.5 300.5 242.776 300.5 200C300.5 157.224 267.776 124.5 225 124.5C182.224 124.5 149.5 157.224 149.5 200ZM625 650.5C632.614 650.5 638.997 647.96 643.479 643.479C647.96 638.997 650.5 632.614 650.5 625V437.5C650.5 362.224 587.776 299.5 512.5 299.5C503.789 299.5 495.079 300.34 486.37 302.02C480.555 303.141 474.519 302.526 468.388 301.615C467.214 301.44 466.036 301.255 464.856 301.069C459.897 300.288 454.896 299.5 450 299.5H350C342.386 299.5 336.003 302.04 331.521 306.521C327.04 311.003 324.5 317.386 324.5 325V625C324.5 632.614 327.04 638.997 331.521 643.479C336.003 647.96 342.386 650.5 350 650.5H425C432.614 650.5 438.997 647.96 443.479 643.479C447.96 638.997 450.5 632.614 450.5 625V537.5V512.5V462.5C450.5 442.776 467.776 425.5 487.5 425.5C507.224 425.5 524.5 442.776 524.5 462.5V512.5V537.5V625C524.5 632.614 527.04 638.997 531.521 643.479C536.003 647.96 542.386 650.5 550 650.5H625Z" stroke="#64FFDA"/>
</g>
</g>
<defs>
<filter id="filter0_d_10_7" x="-4" y="0" width="808" height="808" filterUnits="userSpaceOnUse" color-interpolation-filters="sRGB">
<feFlood flood-opacity="0" result="BackgroundImageFix"/>
<feColorMatrix in="SourceAlpha" type="matrix" values="0 0 0 0 0 0 0 0 0 0 0 0 0 0 0 0 0 0 127 0" result="hardAlpha"/>
<feOffset dy="4"/>
<feGaussianBlur stdDeviation="2"/>
<feComposite in2="hardAlpha" operator="out"/>
<feColorMatrix type="matrix" values="0 0 0 0 0 0 0 0 0 0 0 0 0 0 0 0 0 0 0.25 0"/>
<feBlend mode="normal" in2="BackgroundImageFix" result="effect1_dropShadow_10_7"/>
<feBlend mode="normal" in="SourceGraphic" in2="effect1_dropShadow_10_7" result="shape"/>
</filter>
<clipPath id="clip0_10_7">
<rect width="800" height="800" fill="white"/>
</clipPath>
</defs>
</svg>
