<svg width="800" height="800" viewBox="0 0 800 800" fill="none" xmlns="http://www.w3.org/2000/svg">
<g clip-path="url(#clip0_10_9)">
<path d="M675.733 0.015625H124.267C55.6406 0.015625 0 55.6562 0 124.283V124.645L342.372 436.892C358.786 451.848 379.234 459.191 399.984 459.22C420.767 459.189 441.184 451.848 457.598 436.892L800 124.645V124.283C800 55.6562 744.358 0.015625 675.733 0.015625Z" fill="#64FFDA"/>
<path d="M399.984 552.422C356.966 552.452 313.611 536.797 279.572 505.761L0 250.794V675.717C0 744.342 55.6406 799.984 124.267 799.984H675.733C744.358 799.984 800 744.342 800 675.717V250.794L520.4 505.761C486.389 536.797 443.036 552.45 399.984 552.422Z" fill="#64FFDA"/>
</g>
<defs>
<clipPath id="clip0_10_9">
<rect width="800" height="800" fill="white"/>
</clipPath>
</defs>
</svg>
