<svg width="800" height="800" viewBox="0 0 800 800" fill="none" xmlns="http://www.w3.org/2000/svg">
<g clip-path="url(#clip0_10_13)">
<path d="M755.994 44.0062C726.643 14.6554 691.326 0 650.002 0H149.997C108.674 0 73.357 14.6554 44.0062 44.0062C14.6554 73.357 0 108.674 0 149.997V650.002C0 691.326 14.6554 726.643 44.0062 755.994C73.357 785.345 108.674 800 149.997 800H266.68C274.288 800 280.014 799.72 283.858 799.199C288.33 798.302 292.367 795.917 295.31 792.432C299.114 788.428 301.036 782.622 301.036 775.014L300.756 739.576C300.596 716.993 300.516 699.134 300.516 685.92L288.503 688.002C280.895 689.404 271.285 690.004 259.633 689.844C247.487 689.62 235.381 688.401 223.435 686.2C210.717 683.852 198.746 678.498 188.518 670.584C177.806 662.481 169.817 651.307 165.614 638.55L160.408 626.538C156.021 617.062 150.509 608.149 143.991 599.99C136.543 590.26 128.975 583.693 121.327 580.209L117.724 577.606C115.211 575.807 112.925 573.709 110.916 571.36C108.998 569.179 107.419 566.723 106.232 564.072C105.19 561.63 106.071 559.628 108.834 558.066C111.637 556.464 116.642 555.703 123.97 555.703L134.381 557.305C141.308 558.667 149.917 562.831 160.128 569.758C170.461 576.803 179.093 586.064 185.395 596.867C193.403 611.082 203.013 621.933 214.305 629.421C225.597 636.869 236.969 640.633 248.421 640.633C259.873 640.633 269.763 639.752 278.132 638.03C286.225 636.357 294.089 633.722 301.557 630.182C304.68 606.957 313.169 589.018 327.063 576.525C309.06 574.76 291.216 571.628 273.687 567.155C256.581 562.456 240.13 555.636 224.716 546.854C208.589 538.074 194.344 526.211 182.792 511.938C171.7 498.043 162.571 479.824 155.443 457.28C148.356 434.696 144.792 408.629 144.792 379.118C144.792 337.114 158.486 301.356 185.915 271.805C173.102 240.252 174.303 204.815 189.559 165.614C199.65 162.451 214.585 164.813 234.366 172.621C254.147 180.429 268.642 187.116 277.852 192.642C287.061 198.248 294.429 202.933 299.995 206.737C332.548 197.678 366.19 193.124 399.98 193.203C434.376 193.203 467.691 197.728 500.005 206.737L519.786 194.244C535.001 185.108 551.05 177.439 567.716 171.34C586.135 164.373 600.15 162.491 609.92 165.614C625.537 204.855 626.898 240.252 614.045 271.845C641.474 301.356 655.208 337.114 655.208 379.158C655.208 408.669 651.644 434.817 644.517 457.52C637.429 480.264 628.22 498.483 616.928 512.218C605.636 525.952 591.581 537.444 574.764 546.854C557.946 556.224 541.609 562.991 525.792 567.155C508.265 571.642 490.421 574.788 472.416 576.565C490.435 592.182 499.484 616.808 499.484 650.483V775.014C499.484 780.9 500.325 785.665 502.087 789.309C502.897 791.064 504.052 792.639 505.483 793.939C506.913 795.239 508.591 796.238 510.416 796.877C514.26 798.238 517.624 799.119 520.587 799.439C523.55 799.84 527.794 799.96 533.32 799.96H650.002C691.326 799.96 726.643 785.305 755.994 755.954C785.305 726.643 800 691.286 800 649.962V149.997C800 108.674 785.345 73.357 755.994 44.0062Z" fill="#64FFDA"/>
</g>
<defs>
<clipPath id="clip0_10_13">
<rect width="800" height="800" fill="white"/>
</clipPath>
</defs>
</svg>
